<mxfile host="app.diagrams.net" agent="Mozilla/5.0 (Windows NT 10.0; Win64; x64) AppleWebKit/537.36 (KHTML, like Gecko) Chrome/131.0.0.0 Safari/537.36" version="24.8.6">
  <diagram name="Page-1" id="BIGsjnHHa8UW80UYVxvN">
    <mxGraphModel dx="1434" dy="780" grid="1" gridSize="10" guides="1" tooltips="1" connect="1" arrows="1" fold="1" page="1" pageScale="1" pageWidth="827" pageHeight="1169" math="0" shadow="0">
      <root>
        <mxCell id="0" />
        <mxCell id="1" parent="0" />
        <mxCell id="h9RBUW91DNCGdQp9WRJC-45" style="edgeStyle=orthogonalEdgeStyle;rounded=0;orthogonalLoop=1;jettySize=auto;html=1;exitX=0.5;exitY=1;exitDx=0;exitDy=0;entryX=0.5;entryY=0;entryDx=0;entryDy=0;" parent="1" source="h9RBUW91DNCGdQp9WRJC-1" target="h9RBUW91DNCGdQp9WRJC-23" edge="1">
          <mxGeometry relative="1" as="geometry" />
        </mxCell>
        <mxCell id="h9RBUW91DNCGdQp9WRJC-69" value="K:N" style="edgeLabel;html=1;align=center;verticalAlign=middle;resizable=0;points=[];" parent="h9RBUW91DNCGdQp9WRJC-45" vertex="1" connectable="0">
          <mxGeometry x="0.6733" relative="1" as="geometry">
            <mxPoint as="offset" />
          </mxGeometry>
        </mxCell>
        <mxCell id="h9RBUW91DNCGdQp9WRJC-1" value="Teacher" style="ellipse;whiteSpace=wrap;html=1;" parent="1" vertex="1">
          <mxGeometry x="240" y="290" width="120" height="80" as="geometry" />
        </mxCell>
        <mxCell id="h9RBUW91DNCGdQp9WRJC-2" value="id" style="ellipse;whiteSpace=wrap;html=1;" parent="1" vertex="1">
          <mxGeometry x="10" y="190" width="120" height="80" as="geometry" />
        </mxCell>
        <mxCell id="h9RBUW91DNCGdQp9WRJC-3" value="Name" style="ellipse;whiteSpace=wrap;html=1;" parent="1" vertex="1">
          <mxGeometry x="60" y="100" width="120" height="80" as="geometry" />
        </mxCell>
        <mxCell id="h9RBUW91DNCGdQp9WRJC-6" value="Last name" style="ellipse;whiteSpace=wrap;html=1;" parent="1" vertex="1">
          <mxGeometry x="110" y="10" width="120" height="80" as="geometry" />
        </mxCell>
        <mxCell id="h9RBUW91DNCGdQp9WRJC-14" style="edgeStyle=orthogonalEdgeStyle;rounded=0;orthogonalLoop=1;jettySize=auto;html=1;exitX=0.5;exitY=1;exitDx=0;exitDy=0;entryX=0.5;entryY=0;entryDx=0;entryDy=0;" parent="1" source="h9RBUW91DNCGdQp9WRJC-7" target="h9RBUW91DNCGdQp9WRJC-1" edge="1">
          <mxGeometry relative="1" as="geometry" />
        </mxCell>
        <mxCell id="h9RBUW91DNCGdQp9WRJC-52" value="1:1" style="edgeLabel;html=1;align=center;verticalAlign=middle;resizable=0;points=[];" parent="h9RBUW91DNCGdQp9WRJC-14" vertex="1" connectable="0">
          <mxGeometry x="-0.7038" y="-4" relative="1" as="geometry">
            <mxPoint as="offset" />
          </mxGeometry>
        </mxCell>
        <mxCell id="h9RBUW91DNCGdQp9WRJC-7" value="Monday" style="ellipse;whiteSpace=wrap;html=1;" parent="1" vertex="1">
          <mxGeometry x="240" y="20" width="120" height="80" as="geometry" />
        </mxCell>
        <mxCell id="h9RBUW91DNCGdQp9WRJC-8" value="Tuesday" style="ellipse;whiteSpace=wrap;html=1;" parent="1" vertex="1">
          <mxGeometry x="370" y="20" width="120" height="80" as="geometry" />
        </mxCell>
        <mxCell id="h9RBUW91DNCGdQp9WRJC-16" value="&#xa;&lt;span style=&quot;color: rgb(0, 0, 0); font-family: Helvetica; font-size: 11px; font-style: normal; font-variant-ligatures: normal; font-variant-caps: normal; font-weight: 400; letter-spacing: normal; orphans: 2; text-align: center; text-indent: 0px; text-transform: none; widows: 2; word-spacing: 0px; -webkit-text-stroke-width: 0px; white-space: nowrap; background-color: rgb(255, 255, 255); text-decoration-thickness: initial; text-decoration-style: initial; text-decoration-color: initial; display: inline !important; float: none;&quot;&gt;1:1&lt;/span&gt;&#xa;&#xa;" style="edgeStyle=orthogonalEdgeStyle;rounded=0;orthogonalLoop=1;jettySize=auto;html=1;exitX=0;exitY=0.5;exitDx=0;exitDy=0;entryX=1;entryY=0;entryDx=0;entryDy=0;" parent="1" source="h9RBUW91DNCGdQp9WRJC-9" target="h9RBUW91DNCGdQp9WRJC-1" edge="1">
          <mxGeometry relative="1" as="geometry" />
        </mxCell>
        <mxCell id="h9RBUW91DNCGdQp9WRJC-9" value="Wednesday" style="ellipse;whiteSpace=wrap;html=1;" parent="1" vertex="1">
          <mxGeometry x="430" y="110" width="120" height="80" as="geometry" />
        </mxCell>
        <mxCell id="h9RBUW91DNCGdQp9WRJC-10" value="Thursday" style="ellipse;whiteSpace=wrap;html=1;" parent="1" vertex="1">
          <mxGeometry x="460" y="200" width="120" height="80" as="geometry" />
        </mxCell>
        <mxCell id="h9RBUW91DNCGdQp9WRJC-11" style="edgeStyle=orthogonalEdgeStyle;rounded=0;orthogonalLoop=1;jettySize=auto;html=1;exitX=1;exitY=0.5;exitDx=0;exitDy=0;entryX=0.051;entryY=0.282;entryDx=0;entryDy=0;entryPerimeter=0;" parent="1" source="h9RBUW91DNCGdQp9WRJC-2" target="h9RBUW91DNCGdQp9WRJC-1" edge="1">
          <mxGeometry relative="1" as="geometry" />
        </mxCell>
        <mxCell id="h9RBUW91DNCGdQp9WRJC-49" value="1:1" style="edgeLabel;html=1;align=center;verticalAlign=middle;resizable=0;points=[];" parent="h9RBUW91DNCGdQp9WRJC-11" vertex="1" connectable="0">
          <mxGeometry x="0.3229" y="-2" relative="1" as="geometry">
            <mxPoint as="offset" />
          </mxGeometry>
        </mxCell>
        <mxCell id="h9RBUW91DNCGdQp9WRJC-12" style="edgeStyle=orthogonalEdgeStyle;rounded=0;orthogonalLoop=1;jettySize=auto;html=1;exitX=1;exitY=0.5;exitDx=0;exitDy=0;entryX=0;entryY=0;entryDx=0;entryDy=0;" parent="1" source="h9RBUW91DNCGdQp9WRJC-3" target="h9RBUW91DNCGdQp9WRJC-1" edge="1">
          <mxGeometry relative="1" as="geometry" />
        </mxCell>
        <mxCell id="h9RBUW91DNCGdQp9WRJC-50" value="1:1" style="edgeLabel;html=1;align=center;verticalAlign=middle;resizable=0;points=[];" parent="h9RBUW91DNCGdQp9WRJC-12" vertex="1" connectable="0">
          <mxGeometry x="-0.0567" y="-3" relative="1" as="geometry">
            <mxPoint as="offset" />
          </mxGeometry>
        </mxCell>
        <mxCell id="h9RBUW91DNCGdQp9WRJC-13" style="edgeStyle=orthogonalEdgeStyle;rounded=0;orthogonalLoop=1;jettySize=auto;html=1;exitX=1;exitY=1;exitDx=0;exitDy=0;entryX=0.301;entryY=0.014;entryDx=0;entryDy=0;entryPerimeter=0;" parent="1" source="h9RBUW91DNCGdQp9WRJC-6" target="h9RBUW91DNCGdQp9WRJC-1" edge="1">
          <mxGeometry relative="1" as="geometry">
            <Array as="points">
              <mxPoint x="212" y="120" />
              <mxPoint x="276" y="120" />
            </Array>
          </mxGeometry>
        </mxCell>
        <mxCell id="h9RBUW91DNCGdQp9WRJC-51" value="1:1" style="edgeLabel;html=1;align=center;verticalAlign=middle;resizable=0;points=[];" parent="h9RBUW91DNCGdQp9WRJC-13" vertex="1" connectable="0">
          <mxGeometry x="0.0073" y="-1" relative="1" as="geometry">
            <mxPoint y="1" as="offset" />
          </mxGeometry>
        </mxCell>
        <mxCell id="h9RBUW91DNCGdQp9WRJC-15" style="edgeStyle=orthogonalEdgeStyle;rounded=0;orthogonalLoop=1;jettySize=auto;html=1;exitX=0;exitY=1;exitDx=0;exitDy=0;" parent="1" source="h9RBUW91DNCGdQp9WRJC-8" edge="1">
          <mxGeometry relative="1" as="geometry">
            <mxPoint x="323" y="298" as="targetPoint" />
            <Array as="points">
              <mxPoint x="388" y="120" />
              <mxPoint x="323" y="120" />
            </Array>
          </mxGeometry>
        </mxCell>
        <mxCell id="h9RBUW91DNCGdQp9WRJC-53" value="1:1" style="edgeLabel;html=1;align=center;verticalAlign=middle;resizable=0;points=[];" parent="h9RBUW91DNCGdQp9WRJC-15" vertex="1" connectable="0">
          <mxGeometry x="0.324" y="4" relative="1" as="geometry">
            <mxPoint as="offset" />
          </mxGeometry>
        </mxCell>
        <mxCell id="h9RBUW91DNCGdQp9WRJC-17" style="edgeStyle=orthogonalEdgeStyle;rounded=0;orthogonalLoop=1;jettySize=auto;html=1;exitX=0;exitY=0.5;exitDx=0;exitDy=0;entryX=0.98;entryY=0.389;entryDx=0;entryDy=0;entryPerimeter=0;" parent="1" source="h9RBUW91DNCGdQp9WRJC-10" target="h9RBUW91DNCGdQp9WRJC-1" edge="1">
          <mxGeometry relative="1" as="geometry" />
        </mxCell>
        <mxCell id="h9RBUW91DNCGdQp9WRJC-54" value="1:1" style="edgeLabel;html=1;align=center;verticalAlign=middle;resizable=0;points=[];" parent="h9RBUW91DNCGdQp9WRJC-17" vertex="1" connectable="0">
          <mxGeometry x="-0.5159" y="8" relative="1" as="geometry">
            <mxPoint as="offset" />
          </mxGeometry>
        </mxCell>
        <mxCell id="h9RBUW91DNCGdQp9WRJC-27" style="edgeStyle=orthogonalEdgeStyle;rounded=0;orthogonalLoop=1;jettySize=auto;html=1;entryX=0;entryY=0;entryDx=0;entryDy=0;" parent="1" source="h9RBUW91DNCGdQp9WRJC-18" target="h9RBUW91DNCGdQp9WRJC-23" edge="1">
          <mxGeometry relative="1" as="geometry" />
        </mxCell>
        <mxCell id="h9RBUW91DNCGdQp9WRJC-57" value="1:1" style="edgeLabel;html=1;align=center;verticalAlign=middle;resizable=0;points=[];" parent="h9RBUW91DNCGdQp9WRJC-27" vertex="1" connectable="0">
          <mxGeometry x="-0.8035" y="3" relative="1" as="geometry">
            <mxPoint as="offset" />
          </mxGeometry>
        </mxCell>
        <mxCell id="h9RBUW91DNCGdQp9WRJC-18" value="id" style="ellipse;whiteSpace=wrap;html=1;" parent="1" vertex="1">
          <mxGeometry x="10" y="430" width="120" height="80" as="geometry" />
        </mxCell>
        <mxCell id="h9RBUW91DNCGdQp9WRJC-19" value="Name" style="ellipse;whiteSpace=wrap;html=1;" parent="1" vertex="1">
          <mxGeometry x="10" y="530" width="120" height="80" as="geometry" />
        </mxCell>
        <mxCell id="h9RBUW91DNCGdQp9WRJC-25" value="" style="edgeStyle=orthogonalEdgeStyle;rounded=0;orthogonalLoop=1;jettySize=auto;html=1;" parent="1" source="h9RBUW91DNCGdQp9WRJC-20" target="h9RBUW91DNCGdQp9WRJC-23" edge="1">
          <mxGeometry relative="1" as="geometry" />
        </mxCell>
        <mxCell id="h9RBUW91DNCGdQp9WRJC-60" value="1:1" style="edgeLabel;html=1;align=center;verticalAlign=middle;resizable=0;points=[];" parent="h9RBUW91DNCGdQp9WRJC-25" vertex="1" connectable="0">
          <mxGeometry x="0.1403" y="-4" relative="1" as="geometry">
            <mxPoint as="offset" />
          </mxGeometry>
        </mxCell>
        <mxCell id="h9RBUW91DNCGdQp9WRJC-20" value="Group number" style="ellipse;whiteSpace=wrap;html=1;" parent="1" vertex="1">
          <mxGeometry x="10" y="620" width="120" height="80" as="geometry" />
        </mxCell>
        <mxCell id="h9RBUW91DNCGdQp9WRJC-21" value="Number of hours per week" style="ellipse;whiteSpace=wrap;html=1;" parent="1" vertex="1">
          <mxGeometry x="10" y="710" width="120" height="80" as="geometry" />
        </mxCell>
        <mxCell id="h9RBUW91DNCGdQp9WRJC-22" value="Max hours per day" style="ellipse;whiteSpace=wrap;html=1;" parent="1" vertex="1">
          <mxGeometry x="10" y="800" width="120" height="80" as="geometry" />
        </mxCell>
        <mxCell id="h9RBUW91DNCGdQp9WRJC-23" value="Subject" style="ellipse;whiteSpace=wrap;html=1;" parent="1" vertex="1">
          <mxGeometry x="240" y="620" width="120" height="80" as="geometry" />
        </mxCell>
        <mxCell id="h9RBUW91DNCGdQp9WRJC-26" style="edgeStyle=orthogonalEdgeStyle;rounded=0;orthogonalLoop=1;jettySize=auto;html=1;entryX=0.015;entryY=0.3;entryDx=0;entryDy=0;entryPerimeter=0;" parent="1" source="h9RBUW91DNCGdQp9WRJC-19" target="h9RBUW91DNCGdQp9WRJC-23" edge="1">
          <mxGeometry relative="1" as="geometry" />
        </mxCell>
        <mxCell id="h9RBUW91DNCGdQp9WRJC-59" value="1:1" style="edgeLabel;html=1;align=center;verticalAlign=middle;resizable=0;points=[];" parent="h9RBUW91DNCGdQp9WRJC-26" vertex="1" connectable="0">
          <mxGeometry x="-0.5557" y="-4" relative="1" as="geometry">
            <mxPoint as="offset" />
          </mxGeometry>
        </mxCell>
        <mxCell id="h9RBUW91DNCGdQp9WRJC-28" style="edgeStyle=orthogonalEdgeStyle;rounded=0;orthogonalLoop=1;jettySize=auto;html=1;entryX=0.015;entryY=0.729;entryDx=0;entryDy=0;entryPerimeter=0;" parent="1" source="h9RBUW91DNCGdQp9WRJC-21" target="h9RBUW91DNCGdQp9WRJC-23" edge="1">
          <mxGeometry relative="1" as="geometry" />
        </mxCell>
        <mxCell id="h9RBUW91DNCGdQp9WRJC-61" value="1:1" style="edgeLabel;html=1;align=center;verticalAlign=middle;resizable=0;points=[];" parent="h9RBUW91DNCGdQp9WRJC-28" vertex="1" connectable="0">
          <mxGeometry x="-0.4567" y="9" relative="1" as="geometry">
            <mxPoint as="offset" />
          </mxGeometry>
        </mxCell>
        <mxCell id="h9RBUW91DNCGdQp9WRJC-29" style="edgeStyle=orthogonalEdgeStyle;rounded=0;orthogonalLoop=1;jettySize=auto;html=1;entryX=0.146;entryY=0.996;entryDx=0;entryDy=0;entryPerimeter=0;" parent="1" source="h9RBUW91DNCGdQp9WRJC-22" target="h9RBUW91DNCGdQp9WRJC-23" edge="1">
          <mxGeometry relative="1" as="geometry" />
        </mxCell>
        <mxCell id="h9RBUW91DNCGdQp9WRJC-62" value="1:1" style="edgeLabel;html=1;align=center;verticalAlign=middle;resizable=0;points=[];" parent="h9RBUW91DNCGdQp9WRJC-29" vertex="1" connectable="0">
          <mxGeometry x="-0.4678" y="2" relative="1" as="geometry">
            <mxPoint as="offset" />
          </mxGeometry>
        </mxCell>
        <mxCell id="h9RBUW91DNCGdQp9WRJC-34" style="edgeStyle=orthogonalEdgeStyle;rounded=0;orthogonalLoop=1;jettySize=auto;html=1;" parent="1" source="h9RBUW91DNCGdQp9WRJC-30" target="h9RBUW91DNCGdQp9WRJC-33" edge="1">
          <mxGeometry relative="1" as="geometry" />
        </mxCell>
        <mxCell id="h9RBUW91DNCGdQp9WRJC-63" value="1:1" style="edgeLabel;html=1;align=center;verticalAlign=middle;resizable=0;points=[];" parent="h9RBUW91DNCGdQp9WRJC-34" vertex="1" connectable="0">
          <mxGeometry x="0.0469" y="2" relative="1" as="geometry">
            <mxPoint as="offset" />
          </mxGeometry>
        </mxCell>
        <mxCell id="h9RBUW91DNCGdQp9WRJC-30" value="id" style="ellipse;whiteSpace=wrap;html=1;" parent="1" vertex="1">
          <mxGeometry x="20" y="980" width="120" height="80" as="geometry" />
        </mxCell>
        <mxCell id="h9RBUW91DNCGdQp9WRJC-35" style="edgeStyle=orthogonalEdgeStyle;rounded=0;orthogonalLoop=1;jettySize=auto;html=1;exitX=1;exitY=0;exitDx=0;exitDy=0;entryX=0;entryY=1;entryDx=0;entryDy=0;" parent="1" source="h9RBUW91DNCGdQp9WRJC-31" target="h9RBUW91DNCGdQp9WRJC-33" edge="1">
          <mxGeometry relative="1" as="geometry">
            <Array as="points">
              <mxPoint x="182" y="1040" />
              <mxPoint x="258" y="1040" />
            </Array>
          </mxGeometry>
        </mxCell>
        <mxCell id="h9RBUW91DNCGdQp9WRJC-64" value="1:1" style="edgeLabel;html=1;align=center;verticalAlign=middle;resizable=0;points=[];" parent="h9RBUW91DNCGdQp9WRJC-35" vertex="1" connectable="0">
          <mxGeometry x="-0.1464" y="3" relative="1" as="geometry">
            <mxPoint x="1" as="offset" />
          </mxGeometry>
        </mxCell>
        <mxCell id="h9RBUW91DNCGdQp9WRJC-31" value="Name" style="ellipse;whiteSpace=wrap;html=1;" parent="1" vertex="1">
          <mxGeometry x="80" y="1060" width="120" height="80" as="geometry" />
        </mxCell>
        <mxCell id="h9RBUW91DNCGdQp9WRJC-32" value="Last name" style="ellipse;whiteSpace=wrap;html=1;" parent="1" vertex="1">
          <mxGeometry x="220" y="1060" width="120" height="80" as="geometry" />
        </mxCell>
        <mxCell id="h9RBUW91DNCGdQp9WRJC-48" style="edgeStyle=orthogonalEdgeStyle;rounded=0;orthogonalLoop=1;jettySize=auto;html=1;entryX=0.5;entryY=1;entryDx=0;entryDy=0;exitX=0.5;exitY=0;exitDx=0;exitDy=0;" parent="1" source="h9RBUW91DNCGdQp9WRJC-33" target="h9RBUW91DNCGdQp9WRJC-23" edge="1">
          <mxGeometry relative="1" as="geometry">
            <mxPoint x="310" y="890" as="sourcePoint" />
            <Array as="points">
              <mxPoint x="300" y="860" />
              <mxPoint x="300" y="860" />
            </Array>
          </mxGeometry>
        </mxCell>
        <mxCell id="h9RBUW91DNCGdQp9WRJC-72" value="K:N" style="edgeLabel;html=1;align=center;verticalAlign=middle;resizable=0;points=[];" parent="h9RBUW91DNCGdQp9WRJC-48" vertex="1" connectable="0">
          <mxGeometry x="0.2313" y="2" relative="1" as="geometry">
            <mxPoint as="offset" />
          </mxGeometry>
        </mxCell>
        <mxCell id="h9RBUW91DNCGdQp9WRJC-33" value="Students" style="ellipse;whiteSpace=wrap;html=1;" parent="1" vertex="1">
          <mxGeometry x="240" y="940" width="120" height="80" as="geometry" />
        </mxCell>
        <mxCell id="h9RBUW91DNCGdQp9WRJC-36" style="edgeStyle=orthogonalEdgeStyle;rounded=0;orthogonalLoop=1;jettySize=auto;html=1;exitX=0.5;exitY=0;exitDx=0;exitDy=0;entryX=0.408;entryY=0.943;entryDx=0;entryDy=0;entryPerimeter=0;" parent="1" source="h9RBUW91DNCGdQp9WRJC-32" target="h9RBUW91DNCGdQp9WRJC-33" edge="1">
          <mxGeometry relative="1" as="geometry" />
        </mxCell>
        <mxCell id="h9RBUW91DNCGdQp9WRJC-65" value="1:1" style="edgeLabel;html=1;align=center;verticalAlign=middle;resizable=0;points=[];" parent="h9RBUW91DNCGdQp9WRJC-36" vertex="1" connectable="0">
          <mxGeometry x="0.2591" y="2" relative="1" as="geometry">
            <mxPoint y="1" as="offset" />
          </mxGeometry>
        </mxCell>
      </root>
    </mxGraphModel>
  </diagram>
</mxfile>
